<svg xmlns="http://www.w3.org/2000/svg" version="1.1" xmlns:xlink="http://www.w3.org/1999/xlink" xmlns:svgjs="http://svgjs.dev/svgjs" width="1600" height="700" preserveAspectRatio="none" viewBox="0 0 1600 700"><g mask="url(&quot;#SvgjsMask1017&quot;)" fill="none"><rect width="1600" height="700" x="0" y="0" fill="#1e3266"></rect><path d="M1733.333333333333 700L0 700 L0 453.76Q26.45 346.88, 133.33333333333334 373.33Q218.5 325.16, 266.6666666666667 410.32Q297.45 361.11, 346.6666666666667 391.89Q440.68 352.57, 480 446.58Q512.75 399.33, 560 432.09Q605.15 343.91, 693.3333333333334 389.06Q744.89 307.28, 826.6666666666667 358.84Q887.59 339.76, 906.6666666666667 400.68Q1015.15 375.83, 1040 484.31Q1074.47 385.44, 1173.3333333333333 419.91Q1225.19 391.76, 1253.3333333333333 443.62Q1330.12 387.07, 1386.6666666666665 463.85Q1394.5 391.68, 1466.6666666666665 399.51Q1525.6 325.11, 1599.9999999999998 384.04Q1685.07 335.78, 1733.333333333333 420.85z" fill="#182f5d"></path><path d="M1733.333333333333 700L0 700 L0 517.23Q95.65 532.88, 80 628.53Q71.5 486.69, 213.33333333333334 478.19Q250.67 435.52, 293.33333333333337 472.86Q341.67 441.2, 373.33333333333337 489.54Q421.76 457.97, 453.33333333333337 506.4Q575.87 495.6, 586.6666666666667 618.13Q658.62 556.75, 720.0000000000001 628.71Q745.7 574.41, 800.0000000000001 600.11Q814.8 481.58, 933.3333333333335 496.38Q993.21 422.92, 1066.6666666666667 482.79Q1151.57 434.36, 1200 519.27Q1301.12 487.06, 1333.3333333333333 588.18Q1375.55 497.07, 1466.6666666666665 539.29Q1498.93 438.22, 1599.9999999999998 470.49Q1672.04 409.19, 1733.333333333333 481.23z" fill="#25467d"></path><path d="M1653.3333333333333 700L0 700 L0 616.84Q88 624.84, 80 712.84Q153.92 653.43, 213.33333333333334 727.35Q233.28 613.97, 346.6666666666667 633.92Q379.93 587.18, 426.6666666666667 620.45Q484.33 598.11, 506.6666666666667 655.77Q613.1 628.87, 640 735.31Q655.82 617.79, 773.3333333333334 633.61Q792.04 572.32, 853.3333333333334 591.03Q902.82 560.52, 933.3333333333334 610.01Q1011.35 608.03, 1013.3333333333334 686.05Q1032.62 625.33, 1093.3333333333335 644.62Q1122.38 593.66, 1173.3333333333335 622.71Q1280.48 596.52, 1306.6666666666667 703.67Q1384.4 648.07, 1440 725.8Q1463.05 668.85, 1520 691.9Q1612.93 651.5, 1653.3333333333333 744.43z" fill="#356cb1"></path></g><defs><mask id="SvgjsMask1017"><rect width="1600" height="700" fill="#ffffff"></rect></mask></defs></svg>