<svg xmlns="http://www.w3.org/2000/svg" version="1.1" xmlns:xlink="http://www.w3.org/1999/xlink" xmlns:svgjs="http://svgjs.dev/svgjs" width="1440" height="560" preserveAspectRatio="none" viewBox="0 0 1440 560"><g mask="url(&quot;#SvgjsMask1001&quot;)" fill="none"><rect width="1440" height="560" x="0" y="0" fill="#1e3266"></rect><path d="M1464 560L0 560 L0 393.63Q-12.36 309.27, 72 296.91Q187.01 291.93, 192 406.94Q192.51 335.45, 264 335.96Q308.08 260.04, 384 304.13Q430.5 278.63, 456 325.13Q515.53 312.66, 528 372.2Q531.77 303.97, 600 307.74Q667.31 255.05, 720 322.36Q781.42 311.78, 792 373.21Q821.38 282.6, 912 311.98Q954 281.99, 984 323.99Q1037.83 305.81, 1056 359.64Q1107.62 339.26, 1128 390.88Q1156.6 299.48, 1248 328.07Q1293.03 301.1, 1320 346.12Q1332.11 286.23, 1392 298.34Q1437.51 271.85, 1464 317.35z" fill="#182f5d"></path><path d="M1488 560L0 560 L0 377.13Q37.19 342.32, 72 379.52Q193.56 381.07, 192 502.63Q222.61 413.24, 312 443.84Q360.55 420.39, 384 468.94Q399.2 412.14, 456 427.35Q506.13 357.48, 576 407.6Q635.27 394.88, 648 454.15Q716.68 402.83, 768 471.51Q810.6 442.11, 840 484.7Q873.78 398.48, 960 432.26Q1009.3 409.56, 1032 458.85Q1066.99 373.84, 1152 408.82Q1179.1 363.92, 1224 391.02Q1279.38 374.39, 1296 429.77Q1323.58 385.35, 1368 412.92Q1470.7 395.63, 1488 498.33z" fill="#25467d"></path><path d="M1488 560L0 560 L0 515.3Q22.55 465.84, 72 488.39Q98.84 443.23, 144 470.06Q236.92 442.98, 264 535.89Q333.08 484.97, 384 554.05Q384.35 482.4, 456 482.75Q508.01 414.76, 576 466.77Q625.96 444.73, 648 494.68Q689.43 464.11, 720 505.54Q820.23 485.77, 840 586.01Q845.49 471.5, 960 476.98Q1053.01 497.99, 1032 590.99Q1021.13 508.12, 1104 497.25Q1125.53 446.77, 1176 468.3Q1241.56 413.86, 1296 479.41Q1341.07 452.48, 1368 497.55Q1474.35 483.9, 1488 590.25z" fill="#356cb1"></path></g><defs><mask id="SvgjsMask1001"><rect width="1440" height="560" fill="#ffffff"></rect></mask></defs></svg>